<?xml version="1.0" encoding="iso-8859-1"?>
<!-- Generator: Adobe Illustrator 19.0.0, SVG Export Plug-In . SVG Version: 6.00 Build 0)  -->
<svg version="1.1" id="Capa_1" xmlns="http://www.w3.org/2000/svg" xmlns:xlink="http://www.w3.org/1999/xlink" x="0px" y="0px"
	 viewBox="0 0 360 360" style="enable-background:new 0 0 360 360;" xml:space="preserve">
<g id="XMLID_17_">
	<path id="XMLID_882_" d="M180,0C97.157,0,30,67.157,30,150v109.667h0.016c0.337,13.559,7.045,22.475,19.879,26.753L105,305v30
		c0,13.75,11.25,25,25,25h100c13.75,0,25-11.25,25-25v-30l55.051-18.668c12.834-4.278,19.597-13.106,19.934-26.665H330V150
		C330,67.157,262.843,0,180,0z M300,258.063l-54.635,18.526L225,283.495V305v25h-90v-25v-21.544l-20.415-6.884L60,258.168V150
		c0-32.053,12.482-62.188,35.147-84.853C117.813,42.482,147.947,30,180,30s62.188,12.482,84.853,35.147
		C287.518,87.813,300,117.947,300,150V258.063z"/>
	<path id="XMLID_885_" d="M160,281c0,11.046,8.954,20,20,20s20-8.954,20-20s-20-40-20-40S160,269.954,160,281z"/>
	<path id="XMLID_886_" d="M125,161c-24.854,0-45,20.146-45,45s20.146,45,45,45s45-20.146,45-45S149.854,161,125,161z M125,221
		c-8.271,0-15-6.729-15-15s6.729-15,15-15s15,6.729,15,15S133.271,221,125,221z"/>
	<path id="XMLID_889_" d="M190,206c0,24.854,20.146,45,45,45s45-20.146,45-45s-20.147-45-45-45S190,181.146,190,206z M250,206
		c0,8.271-6.729,15-15,15s-15-6.729-15-15s6.729-15,15-15S250,197.729,250,206z"/>
</g>
<g>
</g>
<g>
</g>
<g>
</g>
<g>
</g>
<g>
</g>
<g>
</g>
<g>
</g>
<g>
</g>
<g>
</g>
<g>
</g>
<g>
</g>
<g>
</g>
<g>
</g>
<g>
</g>
<g>
</g>
</svg>
