<?xml version="1.0" encoding="iso-8859-1"?>
<!-- Generator: Adobe Illustrator 19.0.0, SVG Export Plug-In . SVG Version: 6.00 Build 0)  -->
<svg version="1.1" id="Layer_1" xmlns="http://www.w3.org/2000/svg" xmlns:xlink="http://www.w3.org/1999/xlink" x="0px" y="0px"
	 viewBox="0 0 280.027 280.027" style="enable-background:new 0 0 280.027 280.027;" xml:space="preserve">
<g>
	<path style="fill:#CCD0D2;" d="M140.012,0C72.35,0,17.5,54.859,17.5,122.521c0,41.61,20.792,78.311,52.505,100.451v48.313
		c0,4.83,3.912,8.742,8.751,8.742h17.502v-26.253c0-4.83,3.92-8.751,8.751-8.751c4.839,0,8.751,3.92,8.751,8.751v26.253h17.502
		v-26.253c0-4.83,3.92-8.751,8.751-8.751c4.839,0,8.751,3.92,8.751,8.751v26.253h17.502v-26.253c0-4.83,3.912-8.751,8.751-8.751
		s8.751,3.92,8.751,8.751v26.253h17.502c4.83,0,8.751-3.912,8.751-8.742v-48.313c31.713-22.14,52.505-58.867,52.505-100.451
		C262.524,54.859,207.656,0,140.012,0z"/>
	<path style="fill:#A3A6A8;" d="M206.107,132.645l-10.063-9.941l9.775-9.661c3.658-3.605,3.658-9.46,0-13.065
		c-3.658-3.614-9.591-3.614-13.24,0l-9.783,9.661l-9.775-9.661c-3.658-3.614-9.6-3.614-13.258,0c-3.658,3.605-3.658,9.46,0,13.065
		l9.783,9.661l-10.063,9.941c-3.658,3.614-3.658,9.46,0,13.074c3.658,3.605,9.573,3.605,13.231,0l10.081-9.958l10.072,9.958
		c3.658,3.605,9.582,3.605,13.24,0C209.765,142.105,209.765,136.26,206.107,132.645z M109.725,122.704l9.775-9.661
		c3.658-3.605,3.658-9.46,0-13.065c-3.658-3.614-9.582-3.614-13.24,0l-9.783,9.661l-9.783-9.661c-3.658-3.614-9.591-3.614-13.24,0
		c-3.658,3.605-3.658,9.46,0,13.065l9.775,9.661l-10.072,9.941c-3.649,3.614-3.649,9.46,0,13.074c3.658,3.605,9.591,3.605,13.249,0
		l10.072-9.958l10.072,9.958c3.658,3.605,9.582,3.605,13.249,0c3.649-3.614,3.649-9.477,0-13.074
		C119.797,132.645,109.725,122.704,109.725,122.704z"/>
	<path style="fill:#B7BBBD;" d="M87.507,271.285v-48.313c-31.713-22.14-52.505-58.867-52.505-100.451
		c0-64.713,50.195-117.576,113.761-122.083C145.857,0.236,142.961,0,140.012,0C72.35,0,17.5,54.859,17.5,122.521
		c0,41.61,20.792,78.311,52.505,100.451v48.313c0,4.83,3.912,8.742,8.751,8.742h17.502
		C91.418,280.027,87.507,276.116,87.507,271.285z"/>
</g>
<g>
</g>
<g>
</g>
<g>
</g>
<g>
</g>
<g>
</g>
<g>
</g>
<g>
</g>
<g>
</g>
<g>
</g>
<g>
</g>
<g>
</g>
<g>
</g>
<g>
</g>
<g>
</g>
<g>
</g>
</svg>
